<svg xmlns="http://www.w3.org/2000/svg" xmlns:xlink="http://www.w3.org/1999/xlink" viewBox="0 0 639.79 489.96"><defs><style>.cls-1,.cls-2,.cls-3,.cls-4,.cls-9{stroke:#4f4f4f;}.cls-1,.cls-13,.cls-14,.cls-15,.cls-16,.cls-2,.cls-3,.cls-4,.cls-5,.cls-6,.cls-7,.cls-8,.cls-9{stroke-miterlimit:10;}.cls-1{fill:url(#linear-gradient);}.cls-2{fill:#4c4c4c;}.cls-3{fill:url(#linear-gradient-2);}.cls-4{fill:#7c7c7c;}.cls-5{fill:#512705;stroke:#2b1901;}.cls-6{fill:#5b5b5b;}.cls-6,.cls-7{stroke:#353535;}.cls-7{fill:url(#linear-gradient-3);}.cls-16,.cls-8{fill:none;}.cls-8{stroke:#a0a0a0;}.cls-9{fill:url(#linear-gradient-4);}.cls-10{fill:#030244;}.cls-11{fill:#630202;}.cls-12{fill:url(#linear-gradient-5);}.cls-13{stroke:#727272;fill:url(#linear-gradient-6);}.cls-14{fill:#606060;stroke:#606060;}.cls-15{stroke:#000;}.cls-16{stroke:#161616;stroke-width:6px;}</style><linearGradient id="linear-gradient" x1="328.89" y1="339.58" x2="500.51" y2="369.85" gradientUnits="userSpaceOnUse"><stop offset="0.24" stop-color="#969696"/><stop offset="1"/></linearGradient><linearGradient id="linear-gradient-2" x1="793.24" y1="548.28" x2="836.93" y2="555.98" gradientUnits="userSpaceOnUse"><stop offset="0.71" stop-color="#969696"/><stop offset="1"/></linearGradient><linearGradient id="linear-gradient-3" x1="138.45" y1="301.63" x2="149.62" y2="343.32" gradientUnits="userSpaceOnUse"><stop offset="0.34" stop-color="#969696"/><stop offset="1"/></linearGradient><linearGradient id="linear-gradient-4" x1="328.38" y1="100.48" x2="463.46" y2="213.82" gradientUnits="userSpaceOnUse"><stop offset="0.3" stop-color="#969696"/><stop offset="1"/></linearGradient><linearGradient id="linear-gradient-5" x1="481.28" y1="85.26" x2="667.41" y2="407.66" gradientUnits="userSpaceOnUse"><stop offset="0.58" stop-color="#969696"/><stop offset="1"/></linearGradient><linearGradient id="linear-gradient-6" x1="848.5" y1="375.74" x2="916.05" y2="414.74" xlink:href="#linear-gradient-4"/></defs><g id="legs"><polyline class="cls-1" points="353.49 200.06 345.54 296.74 342.45 362.15 334.05 404.14 335.82 440.83 321.89 466.91 342.89 485.91 391.51 485.91 389.3 474.42 366.58 460.39 376.53 451.44 391.51 417.4 406.98 367.9 402.56 305.13 415.82 338.73 420.74 393.09 415.82 438.62 418.92 465.14 415.82 485.91 464.88 489.45 481.45 477.96 454.27 466.91 456.36 419.61 470.63 375.41 466.47 316.14 453.11 273.81 448.53 217.51 353.49 200.06"/><polyline class="cls-2" points="353.09 196.16 330.98 279.54 327.04 312.4 349.55 317.82 392.29 223.2 353.09 196.16"/><polyline class="cls-2" points="491.12 295.86 453.59 222.53 436.35 195.86 421.6 202.31 455.12 293.81 491.12 295.86"/><ellipse class="cls-2" cx="395.63" cy="358.09" rx="16.99" ry="27.05"/><ellipse class="cls-2" cx="959.88" cy="705.79" rx="16.99" ry="29.09" transform="translate(-538.44 -290.73) rotate(-3.45)"/></g><g id="arms"><path class="cls-3" d="M820.43,625.66c-2.14,7.05-4.7,26.88-11.12,28-5.78,1-12.26-15-14.36-21.75-5.71-18.25-3.94-49.54-1-79.46,5.72-58.59,20.15-103.95,39.16-99.79,14.57,3.2,13.5,33,9.09,73.12-1,8.86-5.81,17.56-7,27.27-.25,2.07-4.88,23.85-9.32,42.59C822.49,610,821.43,622.38,820.43,625.66Z" transform="translate(-497.73 -349.73)"/><path class="cls-4" d="M975.67,520.18c1.15,3.89,6.09,21.54,12.3,30.21,0,0,33.08,6.84,47.44,18.35,7.46,6,4.08,19.8.67,20.58-15.86,3.64-69.71,22-87.71-28.19-19.86-55.42-41.56-103.72-22.6-108.08S959,464,975.67,520.18Z" transform="translate(-497.73 -349.73)"/><rect class="cls-5" x="787.1" y="636.97" width="42.21" height="11.29" transform="translate(-596.18 -201.21) rotate(-9.9)"/><rect class="cls-4" x="793.69" y="626.35" width="29.03" height="29.03" rx="3.69" transform="translate(-534.81 -299.97) rotate(-3.45)"/><rect class="cls-6" x="781.75" y="624.64" width="5.17" height="44.28" transform="translate(-597.25 -205.25) rotate(-9.9)"/><polygon class="cls-7" points="28.48 351.67 286.61 306.62 282.92 285.48 27.26 331.42 1.4 345.5 28.48 351.67"/><line class="cls-8" x1="1.4" y1="345.5" x2="283.98" y2="297.05"/></g><g id="chestplate"><polygon class="cls-9" points="445.27 235.5 365.21 232.39 320.69 109.64 331.93 96.9 356.06 79.26 425.32 80.81 465.5 123.79 445.27 235.5"/></g><g id="chest_cloth"><polygon class="cls-10" points="430.87 285.48 400.38 269.67 338.86 115.57 342.75 102.62 350.31 83.47 425.32 80.81 446.77 124.04 456.36 174.24 430.87 285.48"/><path class="cls-11" d="M899.54,449.24l22.3,14.58-4.28,7.81-14.71-3.41-17,11.86-9.32,15.78s16.18,8.89,17.71,10.79,22.85,6.88,22.85,6.88l15.22,10.38,4.27,24.5-18,18.09L925,586.92l-20.33-20.7L926.14,545l-5.45-19.09-24.41-7.69-25.79-9.08-8.3-27.34,20.24-21.45,18.49-3.23-18.44-18Z" transform="translate(-497.73 -349.73)"/></g><g id="shield"><polygon class="cls-12" points="616.51 73.98 500.58 74.12 479.16 207.29 544.34 440.01 611.39 440.01 639.79 203.12 616.51 73.98"/><polygon class="cls-10" points="608.98 98.13 508.35 98.26 489.76 213.85 546.34 415.85 604.54 415.85 629.19 210.23 608.98 98.13"/><path class="cls-11" d="M1074,492.43l21.62,26.26-6.17,10-15.45-8.5-20.85,12.65L1039.88,553s16,16.65,17.32,19.74,23.7,15.44,23.7,15.44l14.67,18.54v35.88l-23.16,21.26,3.09,30.62L1057.2,660l27.56-24.8-2.31-28.48-25.25-17-26.49-19.31-3.87-40.93L1053.1,504H1074L1057.2,473.9Z" transform="translate(-497.73 -349.73)"/></g><g id="helmet"><path class="cls-13" d="M921.61,392.26c0,14.16-8.32,31.37-18.68,39a27.69,27.69,0,0,1-6.08,2.84c-5.15,1.74-10.76,1.61-17.74,1.61-6,0-12.15.11-16.76-1.42-3-1-6.62-2.87-8.56-5.29-6.67-8.31-7.49-23.37-7.49-36.73,0-23.21,15.81-42,39-42,9.48,0,12.2,2.32,19.23,7.62A43.8,43.8,0,0,1,921.61,392.26Z" transform="translate(-497.73 -349.73)"/><polygon class="cls-14" points="416.74 80.68 389.07 80.1 375.93 65.12 367.96 52.63 446.77 52.63 416.74 80.68"/><polygon class="cls-15" points="423.31 35.24 372.42 35.24 370.21 31.08 367.96 27.67 421.19 27.67 423.31 35.24"/><line class="cls-16" x1="387.14" y1="52.63" x2="387.14" y2="72.05"/><line class="cls-16" x1="404.39" y1="52.63" x2="404.39" y2="72.05"/><line class="cls-16" x1="420.74" y1="52.63" x2="420.74" y2="72.05"/><line class="cls-16" x1="432.43" y1="52.63" x2="432.43" y2="66.66"/></g></svg>