<svg xmlns="http://www.w3.org/2000/svg" xmlns:xlink="http://www.w3.org/1999/xlink" viewBox="0 0 622.54 520.27"><defs><style>.cls-1,.cls-6{stroke:#4b4b4c;}.cls-1,.cls-2,.cls-3,.cls-4,.cls-5,.cls-6,.cls-7{stroke-miterlimit:10;}.cls-1{fill:url(#linear-gradient);}.cls-2{fill:none;stroke:#515151;}.cls-3,.cls-4,.cls-5{stroke:#595959;}.cls-3{fill:url(#linear-gradient-2);}.cls-4{fill:url(#linear-gradient-3);}.cls-5{fill:url(#linear-gradient-4);}.cls-6{fill:url(#linear-gradient-5);}.cls-7{stroke:#2d2d2d;fill:url(#linear-gradient-6);}.cls-8{fill:#191919;}.cls-9{fill:#020202;}</style><linearGradient id="linear-gradient" x1="833.81" y1="500.38" x2="1281.1" y2="758.62" gradientUnits="userSpaceOnUse"><stop offset="0" stop-color="#696969"/><stop offset="1" stop-color="#2a0001"/></linearGradient><linearGradient id="linear-gradient-2" x1="293.95" y1="269.78" x2="380.62" y2="319.82" gradientUnits="userSpaceOnUse"><stop offset="0" stop-color="gray"/><stop offset="1" stop-color="#2a0001"/></linearGradient><linearGradient id="linear-gradient-3" x1="1066.87" y1="475.72" x2="1153.54" y2="525.76" gradientTransform="matrix(0.99, -0.07, 0.07, 1, -757.04, -128.28)" xlink:href="#linear-gradient-2"/><linearGradient id="linear-gradient-4" x1="1107.77" y1="478.05" x2="1195.77" y2="528.86" gradientTransform="matrix(0.99, -0.07, 0.07, 1, -757.04, -128.28)" xlink:href="#linear-gradient-2"/><linearGradient id="linear-gradient-5" x1="1167.85" y1="298.68" x2="1377.31" y2="419.61" xlink:href="#linear-gradient"/><linearGradient id="linear-gradient-6" x1="121.22" y1="272.66" x2="226.52" y2="333.45" gradientUnits="userSpaceOnUse"><stop offset="0.25" stop-color="#c2c2c2"/><stop offset="1" stop-color="#4a4a4a"/></linearGradient></defs><g id="body"><path class="cls-1" d="M815.54,583.47s-61.74,54.81-62.27,56.41-20.22,71.31-20.22,71.31l17-22.88-10.65,38.32,25-43.11-9.58,43.11,19.42-39.92,14.1-16-11.17,38.32,23.42-39.39L925.7,577l20.22-4.12L890,668.09l29.54-36.19-21,60.67,39.38-52.16L914.52,692l31.4-39.39L931,711.19l27.92-47.89,29-35.13,41.51-46.3,26.61-16,29.81,13.3,33-2.26,17.56-14.37,43.11,2.26L1222.66,601l81.42,58.54L1286.52,633l46.3,35.66-35.66-37.25,42,26.61-31.93-39.39,29.27,19.16-36.73-35.65-25.54-39.52h10.64l7.45-10L1336,573.89l-17-17.56,20.23,5.32-25.55-14.36,25.55,2.65-31.4-20.75,6.38-13.31-58.54-52.68-48.43-7.46H1105L999.67,466.39l-62.26,29.8L848,552.07Z" transform="translate(-731.83 -210.4)"/><polyline class="cls-2" points="214.09 362.43 240.7 342.07 277.42 323.44"/><polyline class="cls-2" points="460.92 365.61 451.87 337.8 463.58 311.71 500.83 300.55"/><polyline class="cls-3" points="304.3 251.86 320.73 299.54 342.88 335.75 365.28 346.38 350.07 320.91 330.56 288.38 324.7 249.8 304.3 251.86"/><polyline class="cls-4" points="342.53 249.69 362.31 296.06 386.9 330.57 409.85 339.54 392.92 315.23 371.21 284.2 362.56 246.13 342.53 249.69"/><polygon class="cls-5" points="384.55 246.13 404.58 246.13 413.23 284.2 434.93 315.23 451.87 339.54 428.92 330.57 404.33 296.06 384.55 249.69 384.55 246.13"/><path class="cls-6" d="M1275.37,480.94l43.62-45s-24.93-82.23-21.81-86-40.48-98.42-40.48-98.42l-38.63-39.87,87.21,33.64,33.93,76,14.66,71V460.2l-21.18,30.55-18.5,25.13" transform="translate(-731.83 -210.4)"/></g><g id="head"><polygon class="cls-7" points="187.48 196.5 152.89 217.79 96.48 319.44 84.77 364.14 89.03 391.82 112.44 404.59 117.23 386.5 132.14 394.48 145.44 371.59 150.23 383.3 160.87 362.01 166.73 371.59 176.31 354.03 179.5 367.34 193.34 344.45 200.26 353.5 234.85 300.55 258.26 278.46 275.83 224.18 233.78 237.48 222.85 250.26 200.26 244.4 170.99 250.79 175.78 223.12 187.48 196.5"/><polygon class="cls-8" points="130.54 285.66 124.69 298.43 110.32 314.93 110.32 318.65 130.54 304.82 137.99 285.66 130.54 285.66"/><polygon class="cls-8" points="171.21 336.02 175.88 322.49 188.82 304.33 188.45 300.55 169.31 316.59 163.65 336.76 171.21 336.02"/><polygon class="cls-9" points="104.46 352.05 99.67 378.66 104.46 374.4 104.46 380.79 124.15 361.63 111.91 363.23 104.46 352.05"/></g></svg>