<svg xmlns="http://www.w3.org/2000/svg" xmlns:xlink="http://www.w3.org/1999/xlink" viewBox="0 0 632.02 709.09"><defs><style>.cls-1{fill:#3d1900;}.cls-1,.cls-2,.cls-3,.cls-4,.cls-5,.cls-6,.cls-7,.cls-8{stroke:#000;stroke-miterlimit:10;}.cls-2{fill:#472200;}.cls-3{fill:#6b5e00;}.cls-4{fill:url(#linear-gradient);}.cls-5{fill:#606060;}.cls-6{fill:url(#linear-gradient-2);}.cls-7{fill:url(#linear-gradient-3);}</style><linearGradient id="linear-gradient" x1="228.51" y1="296.05" x2="484.51" y2="296.05" gradientUnits="userSpaceOnUse"><stop offset="0" stop-color="#858585"/><stop offset="1"/></linearGradient><linearGradient id="linear-gradient-2" x1="228.51" y1="217.55" x2="286.51" y2="217.55" xlink:href="#linear-gradient"/><linearGradient id="linear-gradient-3" x1="165.51" y1="276.55" x2="250.58" y2="276.55" xlink:href="#linear-gradient"/></defs><g id="legs"><path class="cls-1" d="M856,584l23,130v78l-23,17-20,23,14,28,17,16s81-13,88-14,11.58-15,11.58-15L978,764l9-11,30,18,13,37,12,10-33,14,16,30,81-9,11-16-30-43,9-165,5.38-76.32L856,584" transform="translate(-621.49 -167.45)"/><path class="cls-2" d="M868.23,653.14,928,680l108-13.43,59.51-28.6,5-72.86L1009,622.55s-79-.44-83,0S856,584,856,584Z" transform="translate(-621.49 -167.45)"/><polyline class="cls-3" points="316.51 466.55 316.51 500.55 325.59 510.18 394.95 501.55 394.95 488.37 387.51 460.55 316.51 466.55"/></g><g id="body"><polygon class="cls-4" points="286.51 147.55 286.51 203.55 245.51 266.55 254.51 311.55 228.51 349.55 234.51 416.55 299.51 466.55 387.51 460.55 458.51 411.55 484.51 379.55 484.51 324.55 409.51 200.55 372.51 125.55 286.51 147.55"/></g><g id="weapon"><path class="cls-5" d="M622,403l50-167,36-34,51,24,13,38-22,78,3,11c-9.52,17.71,499.3,312.7,500,308,.83-5.59-40,19-40,19L924,524l-78-60.5L837,444,737,401l-24,55.9H672S629,438,627,434,622,403,622,403Z" transform="translate(-621.49 -167.45)"/></g><g id="arms"><path class="cls-5" d="M1012.65,330.81S1071,362,1074,366s68,92,68,92l-7,20-72,73-26,32h-14l-3-16-11,8-14-16,31-34,42.5-32L1044,452l-26-34,1-27" transform="translate(-621.49 -167.45)"/><polygon class="cls-6" points="281.51 168.55 245.51 232.55 228.51 256.55 245.51 266.55 286.51 203.55 286.51 168.55 281.51 168.55"/><polygon class="cls-7" points="250.58 317.29 228.51 349.55 178.51 317.29 165.51 266.55 170.51 209.55 185.51 203.55 185.51 225.55 193.51 203.55 199.51 217.55 196.51 235.55 208.05 217.55 208.05 242.55 208.05 281.55 228.51 307.55 224.51 296.05 250.58 317.29"/></g><g id="head"><polygon class="cls-5" points="295.51 168.55 286.51 126.55 291.01 66.55 312.51 108.55 338.51 58.55 345.51 143.55 367.51 161.55 387.51 113.55 372.51 41.55 315.51 0.55 293.51 7.55 245.51 84.55 258.51 157.55 295.51 168.55"/><polygon class="cls-8" points="294.4 163.36 316.51 163.36 338.51 149.55 345.09 138.42 338.51 58.55 312.51 108.55 291.01 66.55 286.51 126.55 294.4 163.36"/></g></svg>