<svg xmlns="http://www.w3.org/2000/svg" xmlns:xlink="http://www.w3.org/1999/xlink" viewBox="0 0 569.63 820.54"><defs><style>.cls-1{fill:#5e4b3b;}.cls-2{fill:#3a322b;}.cls-3{fill:url(#linear-gradient);}.cls-4{fill:#7c7c7c;}.cls-5{fill:#606060;}.cls-6{fill:url(#linear-gradient-2);}.cls-7{fill:#756565;}.cls-7,.cls-8{stroke:#565655;}.cls-14,.cls-15,.cls-7,.cls-8{stroke-miterlimit:10;}.cls-8{fill:none;stroke-width:2px;}.cls-9{fill:url(#linear-gradient-3);}.cls-10{fill:url(#linear-gradient-4);}.cls-11{fill:url(#linear-gradient-5);}.cls-12{fill:url(#linear-gradient-6);}.cls-13{fill:url(#linear-gradient-7);}.cls-14{stroke:#6d6d6d;fill:url(#linear-gradient-8);}.cls-15{fill:#564a3b;stroke:#7a7a7a;}</style><linearGradient id="linear-gradient" x1="844.59" y1="594.24" x2="978.59" y2="763.58" gradientUnits="userSpaceOnUse"><stop offset="0" stop-color="#4d4d4d"/><stop offset="1" stop-color="#006a27"/></linearGradient><linearGradient id="linear-gradient-2" x1="934.49" y1="579.9" x2="1041.46" y2="612.61" gradientTransform="translate(-13.59 -285.96) scale(1 1.47)" gradientUnits="userSpaceOnUse"><stop offset="0" stop-color="#4d4d4d"/><stop offset="1" stop-color="#552a00"/></linearGradient><linearGradient id="linear-gradient-3" x1="1003.36" y1="599.44" x2="1067.9" y2="680.99" gradientTransform="translate(-90.37 -28.33) scale(1.08 1.03)" gradientUnits="userSpaceOnUse"><stop offset="0" stop-color="#4d4d4d"/><stop offset="1" stop-color="#7a7a7a"/></linearGradient><linearGradient id="linear-gradient-4" x1="1033.24" y1="475.8" x2="1188.01" y2="671.38" gradientTransform="matrix(-0.5, 0.96, -0.91, -0.47, 1501.73, -206.47)" gradientUnits="userSpaceOnUse"><stop offset="0" stop-color="#4d4d4d"/><stop offset="0.19" stop-color="#727171"/><stop offset="1" stop-color="#7a7a7a"/></linearGradient><linearGradient id="linear-gradient-5" x1="297.58" y1="490.15" x2="301.38" y2="507.36" gradientTransform="matrix(1, 0, 0, 1, 0, 0)" xlink:href="#linear-gradient-3"/><linearGradient id="linear-gradient-6" x1="285.54" y1="520.79" x2="289.35" y2="538" gradientTransform="matrix(1, 0, 0, 1, 0, 0)" xlink:href="#linear-gradient-3"/><linearGradient id="linear-gradient-7" x1="270.51" y1="549.72" x2="274.31" y2="566.92" gradientTransform="matrix(1, 0, 0, 1, 0, 0)" xlink:href="#linear-gradient-3"/><linearGradient id="linear-gradient-8" x1="52.19" y1="115.84" x2="140.35" y2="210.39" gradientUnits="userSpaceOnUse"><stop offset="0.44" stop-color="#ccc"/><stop offset="1"/></linearGradient></defs><g id="legs"><polygon class="cls-1" points="64.84 459.57 70.81 530.78 80.84 593.28 72.84 651.04 104.57 705.63 122.77 718.29 70.81 810.07 110.11 818.78 140.18 757.06 177.37 692.97 184.49 683.48 218.11 719.08 199.52 791.88 200.31 812.45 243.04 812.45 243.04 776.84 291.3 671.61 228.79 645.5 218.11 585.37 224.05 485.68 213.36 441.37 139.39 468.27 89.54 473.81 64.84 459.57"/><path class="cls-2" d="M810.33,562.28,815,617.67s90.84,8.65,93.21,8.65,56.57-15.82,56.57-15.82L958.51,540l-74,26.9-49.84,5.54Z" transform="translate(-745.15 -98.63)"/><path class="cls-3" d="M815,617.67l46.92,80.65,15.36,72.79s26.18-40.35,26.18-38,19.78,54.59,19.78,54.59l21.37-54.59L973.06,768l12.66-34.81-29.27-53.81,15.82-53-7.52-15.82" transform="translate(-745.15 -98.63)"/><ellipse class="cls-4" cx="866.25" cy="594.53" rx="20.57" ry="15.82" transform="translate(-830.15 49.85) rotate(-9.34)"/><polyline class="cls-5" points="71.14 810.07 87.15 781.8 128.46 781.8 110.44 818.78 71.14 810.07"/><polyline class="cls-5" points="194.18 820.54 201.65 779.68 250.29 763.72 243.95 816.03 194.18 820.54"/></g><g id="body"><rect class="cls-6" x="918.31" y="577.99" width="112.17" height="23.03" transform="translate(-363.36 -481.64) rotate(27.47)"/><polygon class="cls-7" points="109.2 181.62 156.19 172.41 173.22 213.92 214.85 235.65 247.22 283.81 251.33 326.09 241.92 354.28 255.44 393.04 250.74 452.36 244.87 462.93 244.87 483.48 235.47 515.2 226.07 507.56 217.26 515.2 210.22 500.51 203.17 506.97 192.6 499.93 195.51 475.85 204.93 447.66 208.46 431.21 195.51 447.07 154.43 472.32 102.16 475.26 66.33 464.69 58.86 499.34 52.83 532.23 37.97 541.04 23.46 541.04 28.75 523.42 16.41 533.99 4.08 524 0.56 512.26 22.29 486.42 37.97 441.37 41.67 385.99 22.87 335.49 29.92 293.79 50.48 260.17 109.2 181.62"/><polyline class="cls-8" points="208.46 431.21 195.51 391.87 195.51 361.33 176.15 317.28 176.15 294.38 162.65 260.17"/><polyline class="cls-8" points="66.33 464.69 56.35 406.55 45.41 361.33 55.87 305.54 72.31 260.17 72.31 250.89"/><rect class="cls-9" x="1010.94" y="576.25" width="43.3" height="103.56" transform="translate(-339.03 -504.14) rotate(27.47)"/><polygon class="cls-10" points="289.04 571.64 325.04 502.39 550.84 616.21 569.63 669.06 495.05 679.63 289.04 571.64"/><circle class="cls-11" cx="299.48" cy="498.75" r="8.81"/><circle class="cls-12" cx="287.44" cy="529.4" r="8.81"/><circle class="cls-13" cx="272.41" cy="558.32" r="8.81"/></g><g id="head"><polygon class="cls-14" points="72.25 148.34 45.32 194.05 37.97 256.08 46.95 248.74 45.32 260.17 97.56 242.21 144.9 204.25 170.21 164.66 195.51 158.95 195.51 114.05 148.99 107.52 121.23 94.46 112.25 84.67 86.13 84.67 68.99 100.17 71.44 131.19 72.25 148.34"/><polygon class="cls-15" points="195.51 119.95 229.01 99.4 288.33 50.07 264.25 107.62 207.28 155.19 195.51 155.19 195.51 119.95"/><polyline class="cls-15" points="109.2 84.67 103.33 50.07 106.27 1.32 74.55 34.21 66.33 67.1 71.93 97.52"/><polygon points="149.73 136.99 132.11 162.83 134.46 172.41 155.01 164.59 165 154.7 169.69 133.46 149.73 136.99"/><polygon points="94.4 142.92 96.96 120.34 92.2 114.97 81.64 126.97 78.58 136.71 82.76 151.95 94.4 142.92"/><polygon points="52.47 206.23 45.41 243.4 50.64 239.57 49.61 246.15 72.31 223.75 57.64 223.01 52.47 206.23"/></g></svg>